<?xml version="1.0" encoding="utf-8"?>
<!-- Generator: Adobe Illustrator 26.3.0, SVG Export Plug-In . SVG Version: 6.00 Build 0)  -->
<svg version="1.1" id="Capa_1" xmlns="http://www.w3.org/2000/svg" xmlns:xlink="http://www.w3.org/1999/xlink" x="0px" y="0px"
	 viewBox="0 0 595.28 841.89" style="enable-background:new 0 0 595.28 841.89;" xml:space="preserve">
<style type="text/css">
	.st0{fill:#FFFFFF;}
</style>
<g>
	<path class="st0" d="M110.61,491.99c0-26.74-0.87-53.51,0.15-80.21c3.86-100.69,69.02-176.91,160.98-189.21
		c94.47-12.63,175.88,41.44,205.89,136.01c7.01,22.09,6.71,44.59,7.1,67.16c0.36,20.85,0.08,41.72,0.08,64.64
		c19.01-5.58,20.56-20.68,28.64-29.7c13.12-14.65,28.1-21.45,45.89-9.26c16.27,11.14,23.29,26.83,14.75,46.19
		c-16.05,36.38-39.89,67.11-69.67,92.24c-14.95,12.62-20.58,26.43-19.96,46.03c1.21,38.11,0.09,76.29,0.39,114.44
		c0.2,25.82-7.45,46.17-35.83,46.34c-27.84,0.16-37.18-19.16-37.02-45.34c0.17-27.42-0.47-54.85,0.16-82.26
		c0.34-15.02-5.33-19.25-18.7-14.79c-63.48,21.15-127.05,21.46-190.54,0.18c-15.85-5.31-20.52,1.11-20.18,16.93
		c0.62,28.6,0.49,57.23-0.11,85.83c-0.48,23.42-11.03,39.08-35.27,39.7c-24.83,0.64-35.58-16.15-36.3-38.72
		c-1.32-41.69-1.32-83.47-0.19-125.16c0.5-18.49-5.06-31.52-19.01-42.84c-26.62-21.6-46.84-49.1-64.41-78.82
		c-13.05-22.07-15.94-43.12,7.76-59.05c24.82-16.68,40.81-2.19,53.84,19.12c4.6,7.52,9.45,14.87,14.18,22.3
		C105.71,493.16,108.16,492.58,110.61,491.99z M183.18,475.65c-0.11,0-0.23,0-0.34,0c0,20.2,1.47,40.55-0.39,60.57
		c-2.11,22.61,6.21,34.93,26.7,42.35c61.12,22.11,121.52,23.07,181.86-2.65c12.34-5.26,21.72-10.57,21.35-27.52
		c-1.06-48.7,1.39-97.54-1.16-146.13c-3.19-60.63-54.12-107.42-112.86-107.67c-60.12-0.25-111.2,47.95-114.93,109.77
		C181.98,428.05,183.18,451.89,183.18,475.65z"/>
	<path class="st0" d="M308.41,147.17c0.38-64.97,54.31-117.26,114.53-114.8c19.25,0.78,29.13,7.33,29.97,29.06
		c2.42,62.66-52.25,120.16-113.12,117.78C317.7,178.34,304.39,169.98,308.41,147.17z"/>
	<path class="st0" d="M213.23,78.13c38.43-0.87,73.13,35.3,73.06,75.3c-0.03,17.72-6.32,26.5-24.63,25.6
		c-38.07-1.87-72.84-39.52-71.31-78.23C191.12,81.27,193.86,78.57,213.23,78.13z"/>
</g>
</svg>
